<?xml version="1.0" encoding="UTF-8"?>
<svg version="1.1" xmlns="http://www.w3.org/2000/svg" width="512" height="512">
<path d="M0 0 C10.21429764 7.83426712 20.72402017 19.63523552 22.59375 32.88671875 C23.05861133 36.1009028 23.52923841 38.2248931 25.19140625 41.03515625 C28.80545704 43.70299962 33.000461 45.33817885 37.09375 47.12890625 C42.53788009 49.53686285 46.76316314 53.11545696 51.19140625 57.03515625 C52.16078125 57.80859375 53.13015625 58.58203125 54.12890625 59.37890625 C69.62084334 72.28885383 78.97109429 93.34016681 81.19140625 113.03515625 C82.27348129 130.89408278 80.85860877 148.08459027 72.19140625 164.03515625 C71.70027344 164.99550781 71.20914062 165.95585937 70.703125 166.9453125 C65.76675102 176.07583717 59.23656756 183.55703036 51.48046875 190.44140625 C48.68804889 193.60551339 48.08854853 195.99581822 47.19140625 200.09765625 C41.93624462 222.11019771 29.16800613 241.38408967 10.19140625 254.03515625 C9.60104913 258.4733576 9.71932636 262.94535466 9.74536133 267.41845703 C9.75379703 269.63150315 9.72525316 271.84190169 9.69335938 274.0546875 C9.45888704 284.77350647 9.45888704 284.77350647 14.19140625 294.03515625 C20.81330457 297.85146844 27.87414174 300.07032374 35.125 302.40625 C37.00864367 303.02399869 38.89228383 303.64175829 40.77571964 304.26014042 C45.38032139 305.76966845 49.9894036 307.26543672 54.59887695 308.76000977 C57.19665715 309.60282882 59.79271161 310.45065196 62.38722229 311.30348206 C64.81765591 312.10181966 67.25060323 312.89255861 69.68638611 313.67442322 C76.34070299 315.86593591 82.1861715 318.41816359 88.19140625 322.03515625 C88.52140625 318.07515625 88.85140625 314.11515625 89.19140625 310.03515625 C87.85722656 309.6484375 87.85722656 309.6484375 86.49609375 309.25390625 C75.68421351 305.26654616 67.31125977 294.82223728 62.37890625 284.72265625 C59.00421664 276.65521644 57.23369401 268.44177417 56.81640625 259.72265625 C56.50733608 254.71177385 55.257852 251.97752162 52.40234375 247.93359375 C46.83083853 239.19891138 48.20913666 225.37385633 50.31640625 215.78515625 C53.81209514 203.76771887 60.64953466 193.28233819 71.66796875 186.92578125 C81.30586827 181.78796822 89.80510607 179.72375159 100.61328125 179.734375 C102.08513885 179.72794731 102.08513885 179.72794731 103.58673096 179.72138977 C105.654167 179.71567255 107.72162314 179.71512686 109.7890625 179.71948242 C112.91832627 179.72263301 116.04663467 179.69918229 119.17578125 179.67382812 C136.25194384 179.617765 150.95156055 181.15517332 164.06640625 193.34765625 C167.84700894 197.47780372 170.62737908 202.07705184 173.19140625 207.03515625 C173.81595703 208.16244141 173.81595703 208.16244141 174.453125 209.3125 C177.48669385 215.87991045 177.6066194 222.48290929 177.69140625 229.59765625 C177.70993652 230.56727295 177.7284668 231.53688965 177.74755859 232.53588867 C177.68242435 240.06400257 176.27904677 247.04521933 171.57983398 253.11767578 C169.50867756 255.97803494 169.81611356 258.48538774 169.75390625 261.97265625 C169.09548981 278.20698453 162.60515706 290.71912591 151.19140625 302.03515625 C150.28390625 302.628125 149.37640625 303.22109375 148.44140625 303.83203125 C145.82624277 305.95556347 145.82624277 305.95556347 145.59765625 309.75 C145.6029441 311.15788901 145.63498165 312.56588843 145.69140625 313.97265625 C145.68753906 315.02743164 145.68753906 315.02743164 145.68359375 316.10351562 C145.76897137 320.65841154 146.29064241 323.52381496 149.19140625 327.03515625 C152.10395718 328.5291344 155.15732248 329.43307821 158.28515625 330.375 C159.6380072 330.80915977 159.6380072 330.80915977 161.01818848 331.25209045 C163.90409708 332.17627782 166.79675335 333.07626782 169.69140625 333.97265625 C204.20981393 344.75674324 204.20981393 344.75674324 211.98046875 358.109375 C215.11548671 364.26797664 217.30633718 369.15353128 217.3684082 376.11132812 C217.38124344 377.36272583 217.39407867 378.61412354 217.40730286 379.90344238 C217.41546811 381.27025965 217.42291225 382.63708139 217.4296875 384.00390625 C217.43580079 385.03673988 217.43580079 385.03673988 217.44203758 386.09043884 C217.4628697 389.73135069 217.47718661 393.3722251 217.48657227 397.01318359 C217.49766202 400.77627374 217.53209841 404.53877668 217.57174397 408.30165863 C217.5978528 411.19440835 217.60625866 414.08701647 217.60985374 416.97987366 C217.61473061 418.36739593 217.626376 419.75491143 217.64489174 421.14231873 C217.66916787 423.08106308 217.66590977 425.02009334 217.66137695 426.95898438 C217.66724319 428.06246216 217.67310944 429.16593994 217.67915344 430.30285645 C217.19140625 433.03515625 217.19140625 433.03515625 215.38078308 434.89147949 C212.17349413 436.56688857 209.75155355 436.4166006 206.19140625 436.03515625 C203.75390625 434.78515625 203.75390625 434.78515625 202.19140625 433.03515625 C202.19140625 431.71515625 202.19140625 430.39515625 202.19140625 429.03515625 C193.94140625 429.03515625 185.69140625 429.03515625 177.19140625 429.03515625 C176.86140625 430.68515625 176.53140625 432.33515625 176.19140625 434.03515625 C172.39892939 436.56347416 169.64190913 436.64837794 165.19140625 436.03515625 C162.51709136 434.22352358 162.23220266 433.15754548 161.19140625 430.03515625 C142.71140625 429.70515625 124.23140625 429.37515625 105.19140625 429.03515625 C104.86140625 430.68515625 104.53140625 432.33515625 104.19140625 434.03515625 C100.97684555 436.17819671 98.96212209 436.50726099 95.1328125 436.4296875 C93.19140625 436.03515625 93.19140625 436.03515625 90.69140625 433.66015625 C89.19140625 431.03515625 89.19140625 431.03515625 89.19140625 429.03515625 C81.06315244 429.02684596 72.93589613 429.05072505 64.80792713 429.11543465 C61.03348658 429.1444785 57.25966659 429.16253024 53.48510742 429.15527344 C49.84066483 429.14867436 46.19744785 429.17119465 42.5532589 429.21371078 C41.16468355 429.22483226 39.77598376 429.22555053 38.38739967 429.21557999 C30.95983583 428.85769881 30.95983583 428.85769881 24.27281189 431.3974762 C22.74221508 433.17931597 22.74221508 433.17931597 21.19140625 436.03515625 C18.0882056 437.16201682 16.58854529 436.62830751 13.19140625 436.03515625 C10.69140625 433.66015625 10.69140625 433.66015625 9.19140625 431.03515625 C9.19140625 430.37515625 9.19140625 429.71515625 9.19140625 429.03515625 C3.91140625 429.03515625 -1.36859375 429.03515625 -6.80859375 429.03515625 C-7.13859375 430.35515625 -7.46859375 431.67515625 -7.80859375 433.03515625 C-8.87109375 434.78515625 -8.87109375 434.78515625 -10.80859375 436.03515625 C-15.89203406 436.68067248 -15.89203406 436.68067248 -18.80859375 436.03515625 C-21.30859375 433.66015625 -21.30859375 433.66015625 -22.80859375 431.03515625 C-22.80859375 430.37515625 -22.80859375 429.71515625 -22.80859375 429.03515625 C-33.36859375 429.03515625 -43.92859375 429.03515625 -54.80859375 429.03515625 C-55.46859375 430.68515625 -56.12859375 432.33515625 -56.80859375 434.03515625 C-58.80859375 436.03515625 -58.80859375 436.03515625 -62.68359375 436.41015625 C-65.83586742 436.33564796 -66.6524805 436.14833836 -69.30859375 434.22265625 C-70.80859375 432.03515625 -70.80859375 432.03515625 -70.80859375 429.03515625 C-76.08859375 429.03515625 -81.36859375 429.03515625 -86.80859375 429.03515625 C-87.46859375 430.68515625 -88.12859375 432.33515625 -88.80859375 434.03515625 C-91.32305293 436.54961543 -93.19843651 436.42508606 -96.640625 436.69140625 C-98.80859375 436.03515625 -98.80859375 436.03515625 -100.55224609 433.04443359 C-102.52490685 430.62575517 -103.58484941 430.07957674 -106.69261169 429.46258545 C-110.49349137 429.24289825 -114.27319379 429.20314795 -118.078125 429.23046875 C-119.48347751 429.2192129 -120.88881122 429.20532974 -122.29411316 429.18893433 C-125.981748 429.15293881 -129.6685531 429.15251699 -133.35632324 429.15960693 C-137.12376695 429.16052072 -140.89090112 429.12764906 -144.65820312 429.09765625 C-152.04177675 429.04383443 -159.42480071 429.02760709 -166.80859375 429.03515625 C-167.09734375 429.81890625 -167.38609375 430.60265625 -167.68359375 431.41015625 C-168.80859375 434.03515625 -168.80859375 434.03515625 -170.80859375 436.03515625 C-177.86649365 436.71817882 -177.86649365 436.71817882 -181.30859375 434.22265625 C-182.80859375 432.03515625 -182.80859375 432.03515625 -182.80859375 429.03515625 C-190.05862001 429.05002352 -197.30797452 429.09158081 -204.55763721 429.16724682 C-207.92401353 429.20154287 -211.28993484 429.2266306 -214.65649414 429.23071289 C-218.52678696 429.23996686 -222.3956329 429.28088374 -226.265625 429.328125 C-228.07979668 429.32222603 -228.07979668 429.32222603 -229.93061829 429.31620789 C-231.0515538 429.33585098 -232.17248932 429.35549408 -233.32739258 429.37573242 C-234.8096508 429.38572517 -234.8096508 429.38572517 -236.32185364 429.3959198 C-239.05157343 429.81419593 -239.05157343 429.81419593 -240.58866882 432.51387024 C-240.99124405 433.34589462 -241.39381927 434.17791901 -241.80859375 435.03515625 C-242.80859375 436.03515625 -242.80859375 436.03515625 -246.62109375 436.34765625 C-249.81311266 436.31327185 -250.61971178 436.17209568 -253.30859375 434.22265625 C-254.80859375 432.03515625 -254.80859375 432.03515625 -254.80859375 429.03515625 C-263.05859375 429.03515625 -271.30859375 429.03515625 -279.80859375 429.03515625 C-280.13859375 430.68515625 -280.46859375 432.33515625 -280.80859375 434.03515625 C-284.51872774 436.50857891 -286.41919637 436.42019111 -290.80859375 436.03515625 C-292.99790955 434.88645935 -292.99790955 434.88645935 -294.80859375 433.03515625 C-295.32325745 430.36341858 -295.32325745 430.36341858 -295.34204102 427.10180664 C-295.35787735 425.87945816 -295.37371368 424.65710968 -295.39002991 423.39772034 C-295.38618483 422.05941387 -295.38114378 420.72111039 -295.375 419.3828125 C-295.38023911 418.00336793 -295.38651664 416.62392695 -295.39378357 415.24449158 C-295.40420297 412.34666155 -295.39961401 409.44932186 -295.38500977 406.55151367 C-295.36795874 402.86970201 -295.39113463 399.18947111 -295.42649937 395.50783634 C-295.44867901 392.65323382 -295.4469807 389.79899613 -295.43873405 386.94433403 C-295.43753257 384.93721806 -295.4573126 382.93012399 -295.47767639 380.92311096 C-295.35282826 368.46412974 -291.8323146 359.08917663 -283.10546875 350.1484375 C-274.25326968 342.00381217 -262.48961809 338.82586343 -251.22570801 335.2481842 C-248.50004234 334.38205043 -245.77812928 333.50434318 -243.0557251 332.62802124 C-241.01775383 331.97954839 -238.97395836 331.35251175 -236.92919922 330.72583008 C-235.65303065 330.31812563 -234.37713933 329.90955204 -233.1015625 329.5 C-231.96227295 329.14542725 -230.8229834 328.79085449 -229.64916992 328.42553711 C-226.26663431 326.76988259 -225.31780853 325.44282133 -223.80859375 322.03515625 C-222.90900309 316.17251782 -221.93915912 308.83930819 -225.35546875 303.71484375 C-227.42315493 301.99177194 -229.56779463 300.52377148 -231.80859375 299.03515625 C-240.72034654 290.84597801 -246.43121422 278.58280269 -246.96484375 266.49609375 C-247.01640625 265.18898438 -247.06796875 263.881875 -247.12109375 262.53515625 C-247.42205645 256.9227593 -248.01758789 253.24664712 -251.5546875 248.84375 C-257.27987054 240.58593148 -255.51504483 227.57577803 -254.80859375 218.03515625 C-254.02656047 213.93836825 -252.82261777 210.67037608 -250.80859375 207.03515625 C-250.36128906 206.17019531 -249.91398437 205.30523437 -249.453125 204.4140625 C-243.0732745 192.90296495 -233.52348238 185.22072545 -220.84765625 181.359375 C-212.01964544 179.29014991 -202.98105172 179.55114376 -193.96411133 179.58911133 C-190.880995 179.5976289 -187.79973157 179.56877075 -184.71679688 179.53710938 C-167.42028255 179.47525073 -153.36261651 181.99943826 -140.12109375 194.03515625 C-129.55373167 205.12713915 -126.37219109 218.55932923 -126.625 233.4453125 C-126.94289989 239.66126988 -127.51011636 244.45283953 -131.30859375 249.47265625 C-134.20776352 253.69039886 -134.44462144 257.81899839 -134.87109375 262.78515625 C-136.25646132 278.7315175 -142.10041222 291.88254748 -153.80859375 303.03515625 C-162.50047567 310.03515625 -162.50047567 310.03515625 -166.80859375 310.03515625 C-166.47859375 313.99515625 -166.14859375 317.95515625 -165.80859375 322.03515625 C-164.10630615 321.14078857 -162.40401855 320.2464209 -160.65014648 319.32495117 C-154.05359072 316.03122938 -147.35353002 313.64806508 -140.34375 311.3984375 C-138.45482624 310.77795125 -136.56590456 310.15745858 -134.67710781 309.53658581 C-132.07088625 308.68225617 -129.46202219 307.83617209 -126.85302734 306.99035645 C-122.25615694 305.49968616 -117.66133029 304.00284674 -113.06993103 302.4954071 C-110.63458189 301.69675492 -108.19727995 300.90402658 -105.75782776 300.11799622 C-104.65575485 299.75719467 -103.55368195 299.39639313 -102.41821289 299.0246582 C-100.97026085 298.55549736 -100.97026085 298.55549736 -99.49305725 298.07685852 C-94.25350182 296.04365643 -90.9718716 293.99158516 -88.58496094 288.7109375 C-87.02141485 283.32211201 -86.9866491 277.77183151 -86.95751953 272.19921875 C-86.93360106 270.03581763 -86.83505863 267.88367074 -86.734375 265.72265625 C-86.52002963 258.05856087 -86.52002963 258.05856087 -89.91870117 251.41650391 C-92.45643538 249.39621759 -95.02837879 247.70025973 -97.80859375 246.03515625 C-111.89582663 233.78370817 -120.16640218 218.09890828 -124.9140625 200.19921875 C-126.63682286 194.10561222 -128.70430334 190.86831885 -133.37109375 186.59765625 C-139.81079434 180.44148892 -144.36928296 173.71857876 -148.80859375 166.03515625 C-149.43507812 164.99488281 -149.43507812 164.99488281 -150.07421875 163.93359375 C-160.23158355 145.63421431 -161.57574557 121.59383243 -156.84765625 101.5546875 C-149.26702702 75.87744336 -133.19011233 56.88917517 -109.80859375 44.03515625 C-108.57625 43.61878906 -107.34390625 43.20242187 -106.07421875 42.7734375 C-102.51885785 41.3065746 -102.51885785 41.3065746 -101.27734375 37.6640625 C-100.93153825 36.31425167 -100.6096893 34.95813858 -100.30859375 33.59765625 C-95.8565356 16.92034443 -86.1039997 5.41595589 -71.80859375 -3.96484375 C-68.23359915 -5.95204765 -64.63851954 -7.53702054 -60.80859375 -8.96484375 C-60.03 -9.28324219 -59.25140625 -9.60164063 -58.44921875 -9.9296875 C-38.78887397 -16.72315058 -16.54971996 -11.57789867 0 0 Z " fill="#010101" transform="translate(294.80859375,43.96484375)"/>
<path d="M0 0 C1.4718576 -0.00642769 1.4718576 -0.00642769 2.97344971 -0.01298523 C5.04088575 -0.01870245 7.10834189 -0.01924814 9.17578125 -0.01489258 C12.30504502 -0.01174199 15.43335342 -0.03519271 18.5625 -0.06054688 C35.63866259 -0.11661 50.3382793 1.42079832 63.453125 13.61328125 C67.23372769 17.74342872 70.01409783 22.34267684 72.578125 27.30078125 C72.99449219 28.05230469 73.41085937 28.80382812 73.83984375 29.578125 C76.8734126 36.14553545 76.99333815 42.74853429 77.078125 49.86328125 C77.09665527 50.83289795 77.11518555 51.80251465 77.13427734 52.80151367 C77.0691431 60.32962757 75.66576552 67.31084433 70.96655273 73.38330078 C68.89539631 76.24365994 69.20283231 78.75101274 69.140625 82.23828125 C68.48220856 98.47260953 61.99187581 110.98475091 50.578125 122.30078125 C49.216875 123.19023437 49.216875 123.19023437 47.828125 124.09765625 C45.21296152 126.22118847 45.21296152 126.22118847 44.984375 130.015625 C44.98966285 131.42351401 45.0217004 132.83151343 45.078125 134.23828125 C45.07554687 134.94146484 45.07296875 135.64464844 45.0703125 136.36914062 C45.15569012 140.92403654 45.67736116 143.78943996 48.578125 147.30078125 C51.49067593 148.7947594 54.54404123 149.69870321 57.671875 150.640625 C59.02472595 151.07478477 59.02472595 151.07478477 60.40490723 151.51771545 C63.29081583 152.44190282 66.1834721 153.34189282 69.078125 154.23828125 C103.59653268 165.02236824 103.59653268 165.02236824 111.3671875 178.375 C114.50220546 184.53360164 116.69305593 189.41915628 116.75512695 196.37695312 C116.77437981 198.25404968 116.77437981 198.25404968 116.79402161 200.16906738 C116.80218686 201.53588465 116.809631 202.90270639 116.81640625 204.26953125 C116.82048178 204.95808701 116.8245573 205.64664276 116.82875633 206.35606384 C116.84958845 209.99697569 116.86390536 213.6378501 116.87329102 217.27880859 C116.88438077 221.04189874 116.91881716 224.80440168 116.95846272 228.56728363 C116.98457155 231.46003335 116.99297741 234.35264147 116.99657249 237.24549866 C117.00144936 238.63302093 117.01309475 240.02053643 117.03161049 241.40794373 C117.05588662 243.34668808 117.05262852 245.28571834 117.0480957 247.22460938 C117.05396194 248.32808716 117.05982819 249.43156494 117.06587219 250.56848145 C116.578125 253.30078125 116.578125 253.30078125 114.76750183 255.15710449 C111.56021288 256.83251357 109.1382723 256.6822256 105.578125 256.30078125 C103.140625 255.05078125 103.140625 255.05078125 101.578125 253.30078125 C101.578125 251.98078125 101.578125 250.66078125 101.578125 249.30078125 C93.328125 249.30078125 85.078125 249.30078125 76.578125 249.30078125 C76.248125 250.95078125 75.918125 252.60078125 75.578125 254.30078125 C71.78564814 256.82909916 69.02862788 256.91400294 64.578125 256.30078125 C61.90381011 254.48914858 61.61892141 253.42317048 60.578125 250.30078125 C42.098125 249.97078125 23.618125 249.64078125 4.578125 249.30078125 C4.55234375 243.665 4.5265625 238.02921875 4.5 232.22265625 C4.47480456 228.63146627 4.44845095 225.04035828 4.41796875 221.44921875 C4.36979845 215.76139115 4.32569227 210.07375354 4.30712891 204.38574219 C4.29187611 199.79487621 4.25727972 195.20451062 4.20981598 190.61386871 C4.19509048 188.87102889 4.18708911 187.12811759 4.18624115 185.38521576 C4.17218853 170.97153034 2.74326039 159.35759519 -7.421875 148.30078125 C-8.14890625 147.7078125 -8.8759375 147.11484375 -9.625 146.50390625 C-12.19465516 143.35328557 -11.8199345 141.04838778 -11.671875 137.05078125 C-11.63578125 135.7875 -11.5996875 134.52421875 -11.5625 133.22265625 C-11.51609375 132.2584375 -11.4696875 131.29421875 -11.421875 130.30078125 C-12.31132812 130.04296875 -13.20078125 129.78515625 -14.1171875 129.51953125 C-24.92906774 125.53217116 -33.30202148 115.08786228 -38.234375 104.98828125 C-41.60906461 96.92084144 -43.37958724 88.70739917 -43.796875 79.98828125 C-44.10594517 74.97739885 -45.35542925 72.24314662 -48.2109375 68.19921875 C-53.78244272 59.46453638 -52.40414459 45.63948133 -50.296875 36.05078125 C-46.80118611 24.03334387 -39.96374659 13.54796319 -28.9453125 7.19140625 C-19.30741298 2.05359322 -10.80817518 -0.01062341 0 0 Z " fill="#010101" transform="translate(395.421875,223.69921875)"/>
<path d="M0 0 C3.08311633 0.00851757 6.16437975 -0.02034057 9.24731445 -0.05200195 C26.54382877 -0.1138606 40.60149482 2.41032693 53.84301758 14.44604492 C64.41037966 25.53802782 67.59192023 38.97021791 67.33911133 53.85620117 C67.02121144 60.07215856 66.45399497 64.8637282 62.65551758 69.88354492 C59.75634781 74.10128754 59.51948989 78.22988706 59.09301758 83.19604492 C57.58821858 100.51712917 50.69798393 113.37809272 38.15942383 125.35229492 C27.69614126 133.8572091 11.42355907 137.47477836 -1.86791992 136.85620117 C-6.16934258 136.26348545 -9.8351218 135.1050907 -13.84448242 133.44604492 C-13.78647461 134.2684668 -13.7284668 135.09088867 -13.66870117 135.93823242 C-13.34333097 143.98882086 -14.24461805 149.73413014 -18.84448242 156.44604492 C-19.39491211 156.9900293 -19.9453418 157.53401367 -20.51245117 158.09448242 C-22.07846304 159.36718341 -22.07846304 159.36718341 -21.84448242 161.44604492 C-19.97450455 162.80442508 -18.04653249 164.08350122 -16.09448242 165.32104492 C-12.27899951 167.74489035 -8.79552848 169.9903069 -5.84448242 173.44604492 C-5.28198242 176.38354492 -5.28198242 176.38354492 -5.84448242 179.44604492 C-7.90698242 182.38354492 -7.90698242 182.38354492 -10.84448242 184.44604492 C-17.85527904 184.99591132 -22.47521692 180.46536725 -27.84448242 176.44604492 C-29.8909506 174.92424525 -31.95375797 173.42418206 -34.03198242 171.94604492 C-34.97428711 171.25510742 -35.9165918 170.56416992 -36.88745117 169.85229492 C-44.00306369 166.46838408 -52.80974308 171.20118979 -59.78198242 173.57104492 C-60.92344727 173.93713867 -62.06491211 174.30323242 -63.2409668 174.68041992 C-71.75475257 177.57245114 -78.31821975 180.94092675 -83.02978516 188.81445312 C-85.82930637 194.69168215 -85.37048264 200.86548968 -85.31323242 207.24682617 C-85.32400153 209.25310349 -85.33479227 211.25938098 -85.34688568 213.26565075 C-85.36266284 216.76330364 -85.35282336 220.26087993 -85.34448242 223.75854492 C-85.33452359 227.95385472 -85.32901463 232.14877563 -85.35437012 236.34403992 C-85.36841177 238.95046115 -85.36462753 241.55705054 -85.34143066 244.16340637 C-85.34823853 245.33860336 -85.35504639 246.51380035 -85.36206055 247.72460938 C-85.35887817 248.75971146 -85.3556958 249.79481354 -85.35241699 250.86128235 C-85.84448242 253.44604492 -85.84448242 253.44604492 -87.65588379 255.28019714 C-90.8603514 256.98718964 -93.27384397 256.82861333 -96.84448242 256.44604492 C-99.02989197 255.29344177 -99.02989197 255.29344177 -100.84448242 253.44604492 C-101.35914612 250.77430725 -101.35914612 250.77430725 -101.37792969 247.51269531 C-101.39376602 246.29034683 -101.40960236 245.06799835 -101.42591858 243.80860901 C-101.4220735 242.47030254 -101.41703245 241.13199906 -101.41088867 239.79370117 C-101.41612778 238.4142566 -101.42240532 237.03481563 -101.42967224 235.65538025 C-101.44009164 232.75755023 -101.43550268 229.86021053 -101.42089844 226.96240234 C-101.40384741 223.28059068 -101.4270233 219.60035979 -101.46238804 215.91872501 C-101.48456768 213.06412249 -101.48286937 210.2098848 -101.47462273 207.3552227 C-101.47342124 205.34810673 -101.49320127 203.34101266 -101.51356506 201.33399963 C-101.38871693 188.87501841 -97.86820328 179.50006531 -89.14135742 170.55932617 C-80.28915835 162.41470084 -68.52550676 159.2367521 -57.26159668 155.65907288 C-54.53593101 154.7929391 -51.81401795 153.91523186 -49.09161377 153.03890991 C-47.0536425 152.39043706 -45.00984704 151.76340042 -42.96508789 151.13671875 C-41.68891932 150.72901431 -40.41302801 150.32044072 -39.13745117 149.91088867 C-37.99816162 149.55631592 -36.85887207 149.20174316 -35.68505859 148.83642578 C-32.30252298 147.18077126 -31.3536972 145.85371 -29.84448242 142.44604492 C-28.94489176 136.58340649 -27.9750478 129.25019686 -31.39135742 124.12573242 C-33.4590436 122.40266061 -35.60368331 120.93466015 -37.84448242 119.44604492 C-46.75623521 111.25686668 -52.46710289 98.99369137 -53.00073242 86.90698242 C-53.05229492 85.59987305 -53.10385742 84.29276367 -53.15698242 82.94604492 C-53.45794512 77.33364798 -54.05347657 73.65753579 -57.59057617 69.25463867 C-63.31575921 60.99682015 -61.5509335 47.9866667 -60.84448242 38.44604492 C-60.06244914 34.34925692 -58.85850644 31.08126475 -56.84448242 27.44604492 C-56.39717773 26.58108398 -55.94987305 25.71612305 -55.48901367 24.82495117 C-49.10916317 13.31385363 -39.55937105 5.63161413 -26.88354492 1.77026367 C-18.05553411 -0.29896142 -9.01694039 -0.03796757 0 0 Z " fill="#010000" transform="translate(100.844482421875,223.553955078125)"/>
<path d="M0 0 C2.70006456 1.80801694 5.17476329 3.88036144 7.6875 5.9375 C22.41949305 17.56549712 51.12360407 37.25402428 71 35 C71.680625 34.13375 72.36125 33.2675 73.0625 32.375 C76 30 76 30 78.80859375 30.078125 C81.90930152 30.60945803 84.94282114 31.26009767 88 32 C88.92683594 32.13664062 89.85367188 32.27328125 90.80859375 32.4140625 C91.53175781 32.60742188 92.25492187 32.80078125 93 33 C93.350625 33.9075 93.70125 34.815 94.0625 35.75 C96.38805584 39.65093238 97.65431549 39.89610402 101.8125 41.4375 C107.4209229 43.53556619 110.90080667 45.83059452 114 51 C119.12063905 66.36191715 114.0464308 85.4501804 107.1875 99.4375 C104.06692964 105.47962476 100.5859097 110.94738268 96 116 C95.39671875 116.68320312 94.7934375 117.36640625 94.171875 118.0703125 C82.34008791 130.71974341 64.94283141 138.65393567 47.66796875 139.46875 C45.50805567 139.50279416 43.34764389 139.51272473 41.1875 139.5 C40.04966064 139.49427979 38.91182129 139.48855957 37.73950195 139.48266602 C28.61212638 139.28954565 21.32107733 137.93469519 13 134 C11.35064453 133.27296875 11.35064453 133.27296875 9.66796875 132.53125 C-7.49724569 124.22353055 -20.2468131 108.91430475 -27.22680664 91.3215332 C-30.54131978 81.36962115 -31.51210023 71.4165908 -31.44604492 60.98608398 C-31.43748697 58.93437583 -31.46652386 56.88542384 -31.49804688 54.83398438 C-31.55764793 43.81009973 -29.8670632 33.26118284 -23.5 24 C-22.9328125 23.154375 -22.365625 22.30875 -21.78125 21.4375 C-20 19 -20 19 -17.76171875 16.43359375 C-15.57435478 13.96590105 -15.57435478 13.96590105 -16.3125 10.0625 C-16.44921875 8 -16.44921875 8 -16 6 C-11.47734196 1.7260421 -6.16734239 -2.0164088 0 0 Z " fill="#F3A972" transform="translate(214,157)"/>
<path d="M0 0 C1.77442986 -0.00134988 3.54885936 -0.0032931 5.32328796 -0.00579834 C9.03253723 -0.00873668 12.74168977 -0.00449517 16.45092773 0.00488281 C21.17459262 0.01625144 25.89802952 0.00972606 30.62168598 -0.00226212 C34.28427301 -0.00953712 37.94680724 -0.00716665 41.60939598 -0.00200653 C43.34948949 -0.00068428 45.089588 -0.00226705 46.82967567 -0.00696564 C70.23390553 -0.05628764 90.21791977 4.56087257 107.51171875 21.390625 C120.98210085 35.01280271 129.01639148 52.93451931 129.19921875 72.203125 C129.0103785 89.93713424 122.50040662 104.7513432 112.82421875 119.265625 C112.16421875 119.265625 111.50421875 119.265625 110.82421875 119.265625 C110.73785156 118.564375 110.65148437 117.863125 110.5625 117.140625 C109.68247649 111.19844791 108.44972691 106.83013495 104.9453125 101.921875 C103.82421875 100.265625 103.82421875 100.265625 102.82421875 97.265625 C101.10902128 96.23911127 101.10902128 96.23911127 98.82421875 95.265625 C97.07496417 94.24861653 95.3387788 93.21189412 93.60546875 92.16796875 C90.24212187 90.46416803 86.99992571 90.09152768 83.26171875 90.015625 C82.49730469 89.98984375 81.73289062 89.9640625 80.9453125 89.9375 C78.28893193 90.3484318 77.4778871 91.1947698 75.82421875 93.265625 C75.49421875 93.925625 75.16421875 94.585625 74.82421875 95.265625 C61.75445131 94.38190407 61.75445131 94.38190407 57.82421875 92.265625 C56.57421875 89.265625 56.57421875 89.265625 55.82421875 86.265625 C53.64161612 84.08302237 52.49784749 83.69651976 49.59765625 82.8203125 C48.73849609 82.55226807 47.87933594 82.28422363 46.99414062 82.00805664 C46.07181641 81.7218042 45.14949219 81.43555176 44.19921875 81.140625 C25.70571201 75.17624847 8.57788031 66.01260616 -6.17578125 53.265625 C-7.62791016 52.01458984 -7.62791016 52.01458984 -9.109375 50.73828125 C-19.14845993 41.91391274 -27.20947644 32.18516372 -34.23828125 20.828125 C-34.71595947 20.05847412 -35.1936377 19.28882324 -35.68579102 18.49584961 C-37.90957765 14.79467963 -39.74827275 11.65413065 -40.17578125 7.265625 C-38.20000217 6.46554135 -36.21994278 5.67602579 -34.23828125 4.890625 C-33.13613281 4.44976562 -32.03398437 4.00890625 -30.8984375 3.5546875 C-20.57250829 -0.02092283 -10.78619516 -0.02900738 0 0 Z " fill="#794545" transform="translate(232.17578125,94.734375)"/>
<path d="M0 0 C1.2325598 12.18864691 1.2325598 12.18864691 -1.60546875 16.359375 C-3.00569519 17.63087518 -4.43667437 18.86922908 -5.89453125 20.07421875 C-11.91786249 25.58349946 -14.71056299 34.96838825 -15.2784729 42.87889099 C-15.30168623 44.29861059 -15.31460462 45.71852471 -15.31884766 47.13842773 C-15.32889328 47.91973557 -15.3389389 48.7010434 -15.34928894 49.50602722 C-15.37995599 52.0652092 -15.3971098 54.62428737 -15.4140625 57.18359375 C-15.43278744 58.96721784 -15.45236183 60.7508332 -15.4727478 62.53443909 C-15.52393499 67.21144445 -15.56363226 71.8884785 -15.60089111 76.56561279 C-15.64101512 81.34524553 -15.69206905 86.12476034 -15.7421875 90.90429688 C-15.83878784 100.26944825 -15.9232432 109.63466642 -16 119 C-17.04236565 119.00213753 -17.04236565 119.00213753 -18.10578918 119.00431824 C-24.65385906 119.02214581 -31.20129521 119.06375057 -37.74904346 119.13209057 C-41.11541978 119.16638662 -44.48134109 119.19147435 -47.84790039 119.19555664 C-51.71819321 119.20481061 -55.58703915 119.24572749 -59.45703125 119.29296875 C-61.27120293 119.28706978 -61.27120293 119.28706978 -63.12202454 119.28105164 C-64.24296005 119.30069473 -65.36389557 119.32033783 -66.51879883 119.34057617 C-68.00105705 119.35056892 -68.00105705 119.35056892 -69.51325989 119.36076355 C-72.24297968 119.77903968 -72.24297968 119.77903968 -73.78007507 122.47871399 C-74.38393791 123.72675056 -74.38393791 123.72675056 -75 125 C-76 126 -76 126 -79.8125 126.3125 C-83.00451891 126.2781156 -83.81111803 126.13693943 -86.5 124.1875 C-88 122 -88 122 -88 119 C-96.25 119 -104.5 119 -113 119 C-113.09198996 111.17063195 -113.17158663 103.34315039 -113.21972656 95.51367188 C-113.23753649 92.85189753 -113.26706285 90.19098972 -113.30175781 87.52929688 C-113.35045548 83.6965042 -113.37301116 79.86429637 -113.390625 76.03125 C-113.41127014 74.84760864 -113.43191528 73.66396729 -113.45318604 72.44445801 C-113.45538579 64.28573165 -112.20826159 59.06589464 -107.15698242 52.66430664 C-101.22668643 47.24791626 -94.81493186 44.50899167 -87.26049805 42.0690918 C-85.29553315 41.4319989 -83.34668445 40.75697343 -81.39648438 40.07617188 C-70.74934852 36.50880421 -70.74934852 36.50880421 -65 38 C-62.39453125 39.6015625 -62.39453125 39.6015625 -59.8125 41.625 C-58.86503906 42.33785156 -57.91757813 43.05070312 -56.94140625 43.78515625 C-55.97074219 44.51605469 -55.00007813 45.24695313 -54 46 C-47.16389417 51.50160542 -47.16389417 51.50160542 -38.9375 53.125 C-35.72962882 52.22129106 -35.72962882 52.22129106 -34 49 C-33.33278464 46.08559301 -33.33278464 46.08559301 -34 43 C-35.98901218 40.9586454 -37.67773034 39.58748903 -40 38 C-40.86625 37.38382812 -41.7325 36.76765625 -42.625 36.1328125 C-45.07073209 34.40273497 -47.52938574 32.694275 -50 31 C-48.29231921 27.44961249 -46.25801816 24.20601621 -44.12109375 20.90234375 C-41.90172849 17.1363825 -41.7344172 13.59659108 -41.4375 9.3125 C-41.35371094 8.13300781 -41.26992187 6.95351563 -41.18359375 5.73828125 C-41.12300781 4.83464844 -41.06242187 3.93101562 -41 3 C-39.80375 3.33 -38.6075 3.66 -37.375 4 C-22.8649974 7.12871931 -13.14927897 0 0 0 Z " fill="#877E87" transform="translate(128,354)"/>
<path d="M0 0 C1.06476563 0.3609375 2.12953125 0.721875 3.2265625 1.09375 C16.16730941 5.30237896 27.63065875 6.45015258 41 3 C41.01417969 3.82242187 41.02835937 4.64484375 41.04296875 5.4921875 C41.43221941 14.60275707 43.0430403 22.61261595 50 29 C48.47856739 33.24099341 45.71798877 34.7744446 42 37.125 C37.76504126 39.7704392 37.76504126 39.7704392 34 43 C33.5332488 46.57842586 33.59771364 48.37243328 35.5625 51.4375 C38.28697765 53.18396003 39.69599769 53.29497251 42.84838867 52.75952148 C48.75849797 50.67324553 53.82085046 45.89877553 58.73046875 42.10742188 C65.62309445 37.08810316 65.62309445 37.08810316 69.28930664 36.85351562 C71.66585 37.34210584 73.74936914 38.09426403 76 39 C77.89863408 39.6050426 79.7984466 40.20639563 81.69921875 40.8046875 C83.69714573 41.48946615 85.69322629 42.17965376 87.6875 42.875 C88.69361328 43.21402344 89.69972656 43.55304688 90.73632812 43.90234375 C100.23989151 47.19758062 105.84539211 50.88628336 111.6262207 59.39306641 C113.69953805 64.83667587 113.36784876 70.06192143 113.29296875 75.8359375 C113.28872391 77.07042633 113.28447906 78.30491516 113.28010559 79.57681274 C113.26334731 83.50976606 113.22569883 87.44220221 113.1875 91.375 C113.1707574 94.04556542 113.15876183 96.71612599 113.14648438 99.38671875 C113.11600837 105.92483748 113.05727783 112.46184157 113 119 C104.75 119 96.5 119 88 119 C87.67 120.65 87.34 122.3 87 124 C83.20752314 126.52831791 80.45050288 126.61322169 76 126 C73.32568511 124.18836733 73.04079641 123.12238923 72 120 C53.52 119.67 35.04 119.34 16 119 C15.97421875 113.36421875 15.9484375 107.7284375 15.921875 101.921875 C15.89667956 98.33068502 15.87032595 94.73957703 15.83984375 91.1484375 C15.79167345 85.4606099 15.74756727 79.77297229 15.72900391 74.08496094 C15.71375111 69.49409496 15.67915472 64.90372937 15.63169098 60.31308746 C15.61696548 58.57024764 15.60896411 56.82733634 15.60811615 55.08443451 C15.59406353 40.67074909 14.16513539 29.05681394 4 18 C3.27296875 17.40703125 2.5459375 16.8140625 1.796875 16.203125 C-0.77278016 13.05250432 -0.3980595 10.74760653 -0.25 6.75 C-0.21390625 5.48671875 -0.1778125 4.2234375 -0.140625 2.921875 C-0.09421875 1.95765625 -0.0478125 0.9934375 0 0 Z " fill="#B7B1B7" transform="translate(384,354)"/>
<path d="M0 0 C5.06220265 4.27533177 9.93614173 8.69833189 14.75 13.25 C15.44665771 13.90097656 16.14331543 14.55195313 16.86108398 15.22265625 C20.03126213 18.18504366 23.17832238 21.15796993 26.23828125 24.234375 C27.17027344 25.14703125 28.10226563 26.0596875 29.0625 27 C29.85785156 27.804375 30.65320313 28.60875 31.47265625 29.4375 C33.99711834 31.29935559 33.99711834 31.29935559 37.47265625 31.03515625 C41.56282148 29.8348309 43.3484744 28.41521067 46.375 25.4375 C47.11169922 24.72787109 47.11169922 24.72787109 47.86328125 24.00390625 C48.96336269 22.9441701 50.05778439 21.87853758 51.14746094 20.80810547 C53.96924511 18.05400247 56.84197135 15.35478423 59.71337891 12.65258789 C61.2165583 11.23751927 62.71634277 9.81883407 64.21240234 8.39624023 C64.90543457 7.73954346 65.5984668 7.08284668 66.3125 6.40625 C66.92738281 5.82166016 67.54226563 5.23707031 68.17578125 4.63476562 C70.03946052 2.96463763 71.97708004 1.4714175 74 0 C73.37072442 6.36881709 72.40395881 12.56256373 71.14233398 18.83422852 C70.95687012 19.77188553 70.77140625 20.70954254 70.58032227 21.6756134 C69.97247814 24.74409764 69.35933059 27.81149563 68.74609375 30.87890625 C68.3212092 33.01832151 67.89665875 35.15780315 67.47242737 37.29734802 C66.35950116 42.90554303 65.24206089 48.51282921 64.12365723 54.11993408 C62.98138704 59.85089526 61.84341723 65.58271007 60.70507812 71.31445312 C58.47424427 82.54380629 56.23824046 93.77212078 54 105 C42.78 105 31.56 105 20 105 C17.38721511 92.04899511 14.77850341 79.09718814 12.17697144 66.14391804 C10.9688399 60.12936343 9.7589204 54.11518002 8.54492188 48.10180664 C7.37361741 42.29957414 6.20700042 36.49641725 5.04364014 30.6925869 C4.59876643 28.47746332 4.15219906 26.2626792 3.70391846 24.04824257 C3.07678344 20.94881232 2.4556576 17.84823451 1.8359375 14.74731445 C1.64892273 13.83021698 1.46190796 12.91311951 1.26922607 11.9682312 C0.46753037 7.9270084 -0.25152064 4.14457179 0 0 Z " fill="#E9E7E9" transform="translate(219,368)"/>
<path d="M0 0 C-1.46423192 4.92514374 -3.59938311 9.29362095 -5.9765625 13.828125 C-8.37885429 21.27339573 -7.35536521 27.41961188 -3.95019531 34.33349609 C-3.23234863 35.71529053 -3.23234863 35.71529053 -2.5 37.125 C-1.99823242 38.13256348 -1.49646484 39.14012695 -0.97949219 40.17822266 C0.23331018 42.60624609 1.4537679 45.02893747 2.68554688 47.44726562 C7.19263777 56.29987056 11.63408813 65.18575756 16.08666992 74.06585693 C17.74181028 77.35870681 19.40631618 80.64668995 21.07226562 83.93408203 C22.10564615 85.98461113 23.13885662 88.03522594 24.171875 90.0859375 C24.6588385 91.04115295 25.145802 91.99636841 25.64752197 92.98052979 C26.08965027 93.86142273 26.53177856 94.74231567 26.98730469 95.64990234 C27.37746765 96.42055023 27.76763062 97.19119812 28.1696167 97.98519897 C29 100 29 100 29 103 C7.88 103 -13.24 103 -35 103 C-35.20054405 83.68538004 -35.20054405 83.68538004 -35.24414062 75.40625 C-35.27394646 69.77287026 -35.30907764 64.13989967 -35.37719727 58.50683594 C-35.43181393 53.96156223 -35.4614826 49.41672769 -35.47438622 44.87115097 C-35.4835732 43.14328988 -35.50151272 41.41545086 -35.52865028 39.68777847 C-35.70294421 28.12409948 -34.87442286 19.31444411 -26.9375 10.3125 C-20.65371054 5.18785617 -8.21079451 0 0 0 Z " fill="#61515F" transform="translate(162,370)"/>
<path d="M0 0 C26.35850513 7.31850142 26.35850513 7.31850142 32.65698242 18.06591797 C36.34682045 25.70849294 35.61830967 33.97974832 35.48828125 42.2578125 C35.47893989 44.01470934 35.47183004 45.77161934 35.46684265 47.52853394 C35.44787676 52.12207873 35.39886784 56.71481578 35.34332275 61.30804443 C35.2828417 66.83553377 35.26016434 72.36329526 35.23105621 77.89102173 C35.18279465 86.26124057 35.08690906 94.62969192 35 103 C13.88 103 -7.24 103 -29 103 C-28.08958523 98.44792616 -26.94992582 95.54063434 -24.88891602 91.453125 C-24.57011475 90.81669067 -24.25131348 90.18025635 -23.92285156 89.52453613 C-22.87209165 87.43017925 -21.812984 85.3401612 -20.75390625 83.25 C-20.01967577 81.78968091 -19.28603685 80.32906425 -18.55296326 78.86816406 C-16.62391929 75.02717309 -14.68804855 71.18966632 -12.75036621 67.35302734 C-9.65093298 61.21340397 -6.5616223 55.0686837 -3.47282219 48.92370605 C-2.39484952 46.78168067 -1.31381906 44.64122072 -0.23231506 42.50097656 C0.43169875 41.18297711 1.0956477 39.86494499 1.75952148 38.546875 C2.62769753 36.82742676 2.62769753 36.82742676 3.51341248 35.07324219 C6.54447024 28.8070961 8.22818461 23.9746542 7 17 C5.48989327 12.89462915 3.51895369 9.01541522 1.53125 5.125 C0 2 0 2 0 0 Z " fill="#60515F" transform="translate(350,370)"/>
<path d="M0 0 C0.70125 0.19335938 1.4025 0.38671875 2.125 0.5859375 C4.10553955 1.1295095 6.08766012 1.6673427 8.07104492 2.20043945 C9.73652635 2.65509076 11.39877966 3.12335597 13.0480957 3.63354492 C19.33954286 5.48586205 25.67433304 5.33056203 32.1875 5.3125 C33.33025391 5.32861328 34.47300781 5.34472656 35.65039062 5.36132812 C43.81068049 5.36594106 51.14286437 4.15936061 59 2 C59.78141357 1.78770752 60.56282715 1.57541504 61.36791992 1.35668945 C62.91728465 0.92310075 64.45995115 0.46559616 66 0 C66.00410889 0.85118408 66.00821777 1.70236816 66.01245117 2.5793457 C66.03970539 5.79120084 66.08907539 9.00180737 66.15258789 12.21313477 C66.17553319 13.59290114 66.19010753 14.97283682 66.19555664 16.3527832 C66.23965265 25.69096144 67.31582624 32.84376162 72 41 C71.04222656 41.8971875 70.08445312 42.794375 69.09765625 43.71875 C64.73021251 47.81083924 60.36478295 51.90507293 56 56 C55.22591797 56.72606445 54.45183594 57.45212891 53.65429688 58.20019531 C51.37282582 60.3408703 49.09250335 62.48276196 46.8125 64.625 C46.10681885 65.28693359 45.4011377 65.94886719 44.67407227 66.63085938 C41.05661722 70.03204169 37.48727346 73.4653267 34 77 C29.65077562 75.34264993 26.90864133 72.08846754 23.75 68.8125 C19.60135473 64.5806507 15.42079805 60.51510721 10.8984375 56.6796875 C7.82773327 53.96280927 4.99913558 51.0077891 2.12109375 48.08984375 C-0.46383329 45.54300035 -3.16087298 43.25674199 -6 41 C-5.64848877 40.38793701 -5.29697754 39.77587402 -4.93481445 39.14526367 C-0.66043281 30.91543907 -0.22357795 23.44896626 -0.1875 14.3125 C-0.16429771 12.9172796 -0.13892072 11.52209361 -0.11132812 10.12695312 C-0.05292089 6.7510148 -0.01629857 3.37635961 0 0 Z " fill="#E0986B" transform="translate(223,305)"/>
<path d="M0 0 C2.37237123 0.79105225 4.74204167 1.59023664 7.109375 2.39624023 C8.37567428 2.82145411 9.6421985 3.24599864 10.90893555 3.66990662 C14.2188008 4.77951416 17.5255604 5.89810212 20.83172607 7.01867676 C24.21539306 8.16371105 27.60195918 9.30010311 30.98828125 10.43725586 C37.6148194 12.66389818 44.23811233 14.90005445 50.859375 17.14233398 C50.88829296 19.05988787 50.90890855 20.97756814 50.92602539 22.89526367 C50.93839737 23.96315125 50.95076935 25.03103882 50.96351624 26.13128662 C50.66496525 34.76332524 45.71510023 43.39237885 39.75390625 49.47045898 C31.0237691 57.17458002 20.17322348 62.05330373 8.3203125 61.45874023 C-2.81947144 60.0264823 -12.77275893 55.5112391 -20.54296875 47.26342773 C-28.48049163 36.72534724 -32.46945614 23.50235933 -30.82714844 10.37963867 C-29.1695939 4.97784998 -24.07509798 2.37450602 -19.3984375 -0.24047852 C-18.32335937 -0.77415039 -17.24828125 -1.30782227 -16.140625 -1.85766602 C-11.30670731 -4.27462486 -4.83443031 -1.54131364 0 0 Z " fill="#C57F5C" transform="translate(93.140625,283.857666015625)"/>
<path d="M0 0 C0.83524704 0.27290359 1.67049408 0.54580719 2.53105164 0.82698059 C5.19308832 1.69824299 7.85239547 2.57752619 10.51171875 3.45703125 C12.25438607 4.02851718 13.99722342 4.5994849 15.74023438 5.16992188 C26.90650819 8.82972749 38.05456964 12.54447742 49.19921875 16.26953125 C49.33550745 28.72551682 45.78150753 39.31466008 37.12890625 48.45703125 C32.28109205 53.05147537 27.51531672 56.11502745 21.19921875 58.26953125 C20.55339844 58.49382812 19.90757812 58.718125 19.2421875 58.94921875 C9.26302215 61.91654694 -0.44619644 60.61709286 -9.80078125 56.26953125 C-20.63049427 49.87915229 -28.01361819 41.63935302 -31.35839844 29.32861328 C-32.88008001 22.24590779 -33.73408849 14.33823673 -31.80078125 7.26953125 C-28.69989756 3.27588889 -25.33625661 1.36894832 -20.80078125 -0.73046875 C-20.00027344 -1.30667969 -19.19976562 -1.88289063 -18.375 -2.4765625 C-12.69809349 -5.24179313 -5.68747292 -1.89284704 0 0 Z " fill="#FED08C" transform="translate(399.80078125,284.73046875)"/>
<path d="M0 0 C2.87548915 14.23717996 5.74426362 28.47569872 8.60533142 42.71578407 C9.93394258 49.32792415 11.26470868 55.93961672 12.60058594 62.55029297 C13.88965751 68.92937962 15.17267387 75.3096666 16.45199585 81.69071579 C16.9411862 84.12557751 17.43240825 86.56003195 17.9256897 88.99406815 C18.61599151 92.40205483 19.29906995 95.81141516 19.98046875 99.22119141 C20.186185 100.22820099 20.39190125 101.23521057 20.60385132 102.2727356 C20.78896271 103.20654053 20.9740741 104.14034546 21.16479492 105.10244751 C21.32703049 105.90809458 21.48926605 106.71374165 21.65641785 107.54380226 C22 110 22 110 22 116 C16.39 116 10.78 116 5 116 C4.50218018 114.67186279 4.00436035 113.34372559 3.49145508 111.9753418 C0.8176338 105.30004146 -2.46638268 98.95158642 -5.75014687 92.56333351 C-6.88618659 90.34990307 -8.01435189 88.13262539 -9.1401825 85.91398621 C-12.33740681 79.61348425 -15.53806507 73.31489478 -18.76879883 67.03149414 C-20.75362922 63.16984128 -22.72069633 59.29958971 -24.6764431 55.42313194 C-25.42147697 53.95465017 -26.17304086 52.48946182 -26.93132973 51.02778053 C-27.9896946 48.98598006 -29.02501107 46.93394748 -30.0559082 44.87817383 C-30.65007034 43.71586746 -31.24423248 42.5535611 -31.85639954 41.35603333 C-33.88648151 35.39851322 -32.1293332 30.62985808 -29.453125 25.171875 C-28.39603669 23.02598573 -27.32799761 20.88546193 -26.25 18.75 C-25.7240625 17.66203125 -25.198125 16.5740625 -24.65625 15.453125 C-24.13546875 14.4115625 -23.6146875 13.37 -23.078125 12.296875 C-22.60793945 11.35166992 -22.13775391 10.40646484 -21.65332031 9.43261719 C-18.55264952 4.87043707 -13.95417669 3.47373448 -8.875 1.8125 C-7.84117187 1.46832031 -6.80734375 1.12414062 -5.7421875 0.76953125 C-3 0 -3 0 0 0 Z " fill="#716370" transform="translate(202,357)"/>
<path d="M0 0 C1.73468877 0.47055368 3.46918972 0.9417998 5.20361328 1.41333008 C6.169534 1.67567947 7.13545471 1.93802887 8.13064575 2.20832825 C15.74188921 4.30831519 19.66878358 5.68006343 23.7578125 12.83203125 C24.90943797 15.14452689 26.03118892 17.47210375 27.125 19.8125 C28.00671875 21.55756836 28.00671875 21.55756836 28.90625 23.33789062 C31.94224811 29.59874588 33.42503218 33.04508055 32 40 C30.94142588 42.53752029 29.85377433 44.90837159 28.59765625 47.34057617 C28.24798798 48.03743027 27.8983197 48.73428436 27.53805542 49.45225525 C26.38874846 51.73727349 25.2256164 54.01495352 24.0625 56.29296875 C23.25820484 57.88713971 22.45491591 59.48181869 21.65258789 61.07698059 C19.54407205 65.2636724 17.42430567 69.44455649 15.3013916 73.6239624 C11.90100571 80.32218995 8.51625131 87.0283107 5.13449097 93.73595619 C3.95255084 96.07567475 2.76486511 98.41240737 1.57641602 100.74882507 C0.85156668 102.18167231 0.12686778 103.61459567 -0.59765625 105.04760742 C-0.92911652 105.69548218 -1.26057678 106.34335693 -1.6020813 107.01086426 C-3.13104848 110.04619791 -4.16843525 112.67374098 -5 116 C-10.61 116 -16.22 116 -22 116 C-21.4255297 108.56573245 -20.4522555 101.41299566 -18.95874023 94.11254883 C-18.75376923 93.08681763 -18.54879822 92.06108643 -18.33761597 91.00427246 C-17.66674672 87.65406672 -16.98774723 84.30556649 -16.30859375 80.95703125 C-15.83869231 78.61872844 -15.36930424 76.2803224 -14.90040588 73.94181824 C-13.67089579 67.81706676 -12.43445915 61.69373394 -11.1965332 55.57067871 C-9.93214227 49.3103372 -8.67436459 43.0486676 -7.41601562 36.78710938 C-4.95045007 24.52343708 -2.47755877 12.26125458 0 0 Z " fill="#716370" transform="translate(310,357)"/>
<path d="M0 0 C2.45703125 1.62890625 2.45703125 1.62890625 4.8125 3.5625 C5.60269531 4.20316406 6.39289063 4.84382812 7.20703125 5.50390625 C7.79871094 5.99761719 8.39039063 6.49132812 9 7 C8.63648438 7.43828125 8.27296875 7.8765625 7.8984375 8.328125 C-0.7180909 19.19820698 -5.29859099 30.54299955 -5.3359375 44.37109375 C-5.3459227 45.69198753 -5.3459227 45.69198753 -5.35610962 47.03956604 C-5.36618589 48.89769421 -5.37092821 50.75585821 -5.37060547 52.61401367 C-5.37493995 55.39891539 -5.41120517 58.18217878 -5.44921875 60.96679688 C-5.60968151 86.0433594 1.8363614 107.00730885 19.21484375 125.3359375 C24.18984479 130.0320506 29.70627518 133.37210338 35.69140625 136.65234375 C36.83416016 137.31943359 36.83416016 137.31943359 38 138 C38 138.33 38 138.66 38 139 C24.40292558 140.43969023 8.95343377 133.91282383 -1.69677734 125.68994141 C-17.79150065 112.40779953 -27.84762026 95.69446124 -31 75 C-31.35790791 70.32152813 -31.47573659 65.67456681 -31.44604492 60.98608398 C-31.43748697 58.93437583 -31.46652386 56.88542384 -31.49804688 54.83398438 C-31.55764793 43.81009973 -29.8670632 33.26118284 -23.5 24 C-22.9328125 23.154375 -22.365625 22.30875 -21.78125 21.4375 C-20 19 -20 19 -17.76171875 16.43359375 C-15.57435478 13.96590105 -15.57435478 13.96590105 -16.3125 10.0625 C-16.44921875 8 -16.44921875 8 -16 6 C-11.39761852 1.65070263 -6.26561034 -1.83852216 0 0 Z " fill="#DF986A" transform="translate(214,157)"/>
<path d="M0 0 C0.87358658 -0.00287018 1.74717316 -0.00574036 2.64723206 -0.00869751 C4.48170628 -0.01072499 6.31620278 -0.00528801 8.15063477 0.00732422 C10.93100213 0.02337743 13.70991183 0.00744064 16.49023438 -0.01171875 C30.44977234 -0.02926629 40.77973134 0.97718533 51.19140625 11.02734375 C52.78202281 12.74123309 54.15612962 14.48842268 55.50390625 16.3984375 C55.91898437 16.98496094 56.3340625 17.57148438 56.76171875 18.17578125 C60.95596989 25.58171421 60.67382831 36.12148468 59.50390625 44.3984375 C58.48291016 46.6628418 58.48291016 46.6628418 57.50390625 48.3984375 C52.88543795 47.83740552 48.71055809 46.9577194 44.3125 45.44897461 C43.13437744 45.0486351 41.95625488 44.64829559 40.74243164 44.23582458 C39.81359665 43.91554196 39.81359665 43.91554196 38.86599731 43.58878899 C36.90817191 42.91433226 34.94760475 42.24848141 32.98608398 41.58485413 C27.41400165 39.69810722 21.84691328 37.79686812 16.28222656 35.88842773 C12.86662213 34.71768525 9.44761661 33.55736488 6.02639771 32.40313911 C4.7301472 31.96343192 3.43525075 31.51971057 2.14181519 31.0717907 C0.32963619 30.44435131 -1.48745654 29.83115956 -3.3046875 29.21850586 C-4.33392334 28.86622421 -5.36315918 28.51394257 -6.42358398 28.15098572 C-10.74424833 27.09272765 -14.77735641 26.62073859 -18.89550781 28.48413086 C-19.59385742 28.98050049 -20.29220703 29.47687012 -21.01171875 29.98828125 C-21.78773437 30.52517578 -22.56375 31.06207031 -23.36328125 31.61523438 C-24.14960937 32.18306641 -24.9359375 32.75089844 -25.74609375 33.3359375 C-27.33272669 34.45193736 -28.92119184 35.56533813 -30.51171875 36.67578125 C-31.20555664 37.17327881 -31.89939453 37.67077637 -32.61425781 38.18334961 C-34.49609375 39.3984375 -34.49609375 39.3984375 -37.49609375 40.3984375 C-37.9350399 31.82679455 -38.10614039 24.82334128 -33.49609375 17.3984375 C-33.07199219 16.70105469 -32.64789063 16.00367188 -32.2109375 15.28515625 C-24.69378826 4.1664759 -12.98979516 -0.09631595 0 0 Z " fill="#5F505E" transform="translate(92.49609375,238.6015625)"/>
<path d="M0 0 C0.87783142 -0.00428513 1.75566284 -0.00857025 2.66009521 -0.01298523 C4.51248312 -0.01871009 6.36489351 -0.01924243 8.21728516 -0.01489258 C11.02416236 -0.01174423 13.82997249 -0.03517432 16.63671875 -0.06054688 C29.62281026 -0.10750774 40.4855406 0.55296973 50.796875 9.30078125 C53.15343097 11.78854858 55.01600686 14.37777579 56.796875 17.30078125 C57.41755859 18.28304688 57.41755859 18.28304688 58.05078125 19.28515625 C61.9927637 26.59224568 62.26946015 35.87325314 60.11328125 43.8203125 C59.296875 45.73828125 59.296875 45.73828125 57.796875 48.30078125 C50.19177275 46.7967081 43.02006046 44.46838218 35.6953125 41.94921875 C33.80699894 41.30916332 31.91868106 40.66912034 30.03011513 40.02980995 C25.41156212 38.46497572 20.79631261 36.89053743 16.18359375 35.30859375 C13.5816545 34.41669291 10.97789852 33.53050161 8.37197876 32.65029907 C5.92820222 31.82447114 3.48727003 30.99016493 1.0496521 30.14633179 C-8.34584081 26.72038936 -8.34584081 26.72038936 -17.81787109 28.49414062 C-18.61273926 29.03876953 -19.40760742 29.58339844 -20.2265625 30.14453125 C-21.10183594 30.73105469 -21.97710937 31.31757813 -22.87890625 31.921875 C-23.76964844 32.54191406 -24.66039062 33.16195312 -25.578125 33.80078125 C-27.37665081 35.02093769 -29.17607908 36.23976534 -30.9765625 37.45703125 C-31.76466309 38.00166016 -32.55276367 38.54628906 -33.36474609 39.10742188 C-35.203125 40.30078125 -35.203125 40.30078125 -36.203125 40.30078125 C-37.05838747 28.70722326 -35.8932967 20.62240078 -28.52734375 11.14453125 C-24.70532178 6.99741776 -20.42725367 4.36113854 -15.203125 2.30078125 C-14.35983643 1.95998535 -13.51654785 1.61918945 -12.64770508 1.26806641 C-8.34727128 0.06044583 -4.4435542 -0.00485315 0 0 Z " fill="#D08962" transform="translate(396.203125,238.69921875)"/>
<path d="M0 0 C2.73566109 2.28538147 4.16861274 5.01324447 5.80273438 8.14038086 C12.94784801 21.78149603 22.74523629 33.53045237 34 44 C33.01 44.66 32.02 45.32 31 46 C30.23945313 46.52078125 29.47890625 47.0415625 28.6953125 47.578125 C27.84710938 48.12984375 26.99890625 48.6815625 26.125 49.25 C25.28195313 49.81203125 24.43890625 50.3740625 23.5703125 50.953125 C21 52 21 52 18.5546875 51.109375 C17.71164063 50.74328125 16.86859375 50.3771875 16 50 C12.38976475 50.13474495 10.55632193 50.56793271 7.69140625 52.79296875 C-5.14717679 67.23343004 -9.0890503 83.08994068 -10 102 C-21.34311377 91.6629711 -26.21881334 74.87369327 -27.375 59.93359375 C-27.96234696 41.15684576 -21.6835246 23.00634619 -9 9 C-6.06106949 5.9341077 -3.06488545 2.93978808 0 0 Z " fill="#6E383B" transform="translate(178,111)"/>
<path d="M0 0 C6.0110808 5.70114719 10.84055932 11.73489329 13.94140625 19.48046875 C13.94140625 20.47046875 13.94140625 21.46046875 13.94140625 22.48046875 C-16.41859375 22.48046875 -46.77859375 22.48046875 -78.05859375 22.48046875 C-75.96832882 12.02914412 -69.18399921 4.13460738 -61.05859375 -2.51953125 C-41.53253288 -15.20092252 -18.41023742 -15.16552124 0 0 Z " fill="#825151" transform="translate(288.05859375,58.51953125)"/>
<path d="M0 0 C-1.75933339 5.91775776 -4.37408422 11.42834536 -7 17 C-7.30808594 17.73734375 -7.61617187 18.4746875 -7.93359375 19.234375 C-9.71932034 22.19096261 -12.894804 22.7579216 -16 24 C-17.47687035 26.9537407 -17.17880959 29.96308259 -17.20532227 33.20361328 C-17.22017166 34.3159584 -17.22017166 34.3159584 -17.23532104 35.45077515 C-17.26696363 37.90725488 -17.29170431 40.36375397 -17.31640625 42.8203125 C-17.3369734 44.521398 -17.35796981 46.22247836 -17.37937927 47.92355347 C-17.43462464 52.40500736 -17.48402303 56.88650756 -17.53222656 61.36804199 C-17.5824236 65.93941377 -17.63811904 70.51071813 -17.69335938 75.08203125 C-17.80097109 84.05462994 -17.90240936 93.02728711 -18 102 C-21.60993172 103.13480527 -24.9842327 103.10015767 -28.75 103.0625 C-29.92046875 103.05347656 -31.0909375 103.04445313 -32.296875 103.03515625 C-33.63492188 103.01775391 -33.63492188 103.01775391 -35 103 C-35.11622193 92.87251041 -35.20488103 82.74518138 -35.25906086 72.61715889 C-35.28507418 67.91347703 -35.32031968 63.21025387 -35.37719727 58.50683594 C-35.43181393 53.96156223 -35.4614826 49.41672769 -35.47438622 44.87115097 C-35.4835732 43.14328988 -35.50151272 41.41545086 -35.52865028 39.68777847 C-35.70294421 28.12409948 -34.87442286 19.31444411 -26.9375 10.3125 C-20.65371054 5.18785617 -8.21079451 0 0 0 Z " fill="#4C3C4B" transform="translate(162,370)"/>
<path d="M0 0 C0.91523437 0.70382812 1.83046875 1.40765625 2.7734375 2.1328125 C3.69382813 2.83148438 4.61421875 3.53015625 5.5625 4.25 C6.41585937 4.91257812 7.26921875 5.57515625 8.1484375 6.2578125 C9.4801657 7.25994911 10.81285023 8.26082482 12.1484375 9.2578125 C11.22289062 9.51433594 10.29734375 9.77085937 9.34375 10.03515625 C-0.13335902 12.7165845 -9.47307184 15.74940479 -18.7890625 18.9453125 C-19.9445459 19.33775146 -21.1000293 19.73019043 -22.29052734 20.13452148 C-23.37156738 20.50907471 -24.45260742 20.88362793 -25.56640625 21.26953125 C-26.53698975 21.60428467 -27.50757324 21.93903809 -28.50756836 22.28393555 C-30.98775232 23.13954439 -30.98775232 23.13954439 -32.8515625 25.2578125 C-33.18287663 27.64261296 -33.18287663 27.64261296 -33.17041016 30.44189453 C-33.19027985 31.52286407 -33.21014954 32.60383362 -33.23062134 33.71755981 C-33.24217255 34.88842133 -33.25372375 36.05928284 -33.265625 37.265625 C-33.28499115 38.46138153 -33.3043573 39.65713806 -33.3243103 40.88912964 C-33.38424194 44.72028398 -33.4305461 48.55146815 -33.4765625 52.3828125 C-33.51472974 54.97527375 -33.55378071 57.56772216 -33.59375 60.16015625 C-33.68995475 66.52593769 -33.77393564 72.89177849 -33.8515625 79.2578125 C-39.4615625 79.2578125 -45.0715625 79.2578125 -50.8515625 79.2578125 C-50.95067976 71.42907373 -51.02315073 63.60070291 -51.07128906 55.77148438 C-51.08909899 53.10971003 -51.11862535 50.44880222 -51.15332031 47.78710938 C-51.20201798 43.9543167 -51.22457366 40.12210887 -51.2421875 36.2890625 C-51.26283264 35.10542114 -51.28347778 33.92177979 -51.30474854 32.70227051 C-51.30694829 24.54354415 -50.05982409 19.32370714 -45.00854492 12.92211914 C-39.07824893 7.50572876 -32.66649436 4.76680417 -25.11206055 2.3269043 C-23.14709565 1.6898114 -21.19824695 1.01478593 -19.24804688 0.33398438 C-6.46413315 -3.94931971 -6.46413315 -3.94931971 0 0 Z " fill="#726471" transform="translate(65.8515625,393.7421875)"/>
<path d="M0 0 C0.70125 0.19335938 1.4025 0.38671875 2.125 0.5859375 C4.10553955 1.1295095 6.08766012 1.6673427 8.07104492 2.20043945 C9.73652635 2.65509076 11.39877966 3.12335597 13.0480957 3.63354492 C19.33954286 5.48586205 25.67433304 5.33056203 32.1875 5.3125 C33.33025391 5.32861328 34.47300781 5.34472656 35.65039062 5.36132812 C46.36397799 5.36738442 55.74904477 2.92884435 66 0 C66 8.25 66 16.5 66 25 C65.67 25 65.34 25 65 25 C65 22.69 65 20.38 65 18 C63.7625 18.45375 62.525 18.9075 61.25 19.375 C53.58916108 21.90081314 45.89212948 22.96511397 37.85668945 23.28735352 C31.03838333 23.5710216 25.70683903 23.93936454 20 28 C16.15832129 32.39048995 14.39017364 37.78421173 12.23828125 43.140625 C10.80769255 46.44406641 9.15258195 49.12989073 7 52 C6.56429687 51.62488281 6.12859375 51.24976563 5.6796875 50.86328125 C1.81392401 47.54140223 -2.07657648 44.25357073 -6 41 C-5.64848877 40.38793701 -5.29697754 39.77587402 -4.93481445 39.14526367 C-0.66043281 30.91543907 -0.22357795 23.44896626 -0.1875 14.3125 C-0.16429771 12.9172796 -0.13892072 11.52209361 -0.11132812 10.12695312 C-0.05292089 6.7510148 -0.01629857 3.37635961 0 0 Z " fill="#CE8861" transform="translate(223,305)"/>
<path d="M0 0 C1.06476563 0.3609375 2.12953125 0.721875 3.2265625 1.09375 C16.16730941 5.30237896 27.63065875 6.45015258 41 3 C41.01417969 3.82242187 41.02835937 4.64484375 41.04296875 5.4921875 C41.43221941 14.60275707 43.0430403 22.61261595 50 29 C48.47856739 33.24099341 45.71798877 34.7744446 42 37.125 C37.76504126 39.7704392 37.76504126 39.7704392 34 43 C33.75787127 44.98128508 33.75787127 44.98128508 33.875 47.125 C33.91625 48.40375 33.9575 49.6825 34 51 C28.50646225 53.69071237 23.96914799 55.1900318 17.82421875 53.34765625 C16 52 16 52 15.53125 49.3828125 C15.5209375 48.30773437 15.510625 47.23265625 15.5 46.125 C14.92717076 34.84275454 11.65743239 26.32913698 4 18 C3.27296875 17.40703125 2.5459375 16.8140625 1.796875 16.203125 C-0.77278016 13.05250432 -0.3980595 10.74760653 -0.25 6.75 C-0.21390625 5.48671875 -0.1778125 4.2234375 -0.140625 2.921875 C-0.09421875 1.95765625 -0.0478125 0.9934375 0 0 Z " fill="#F1A871" transform="translate(384,354)"/>
<path d="M0 0 C1.2325598 12.18864691 1.2325598 12.18864691 -1.60546875 16.359375 C-3.00569519 17.63087518 -4.43667437 18.86922908 -5.89453125 20.07421875 C-14.587561 28.02535728 -15.3730441 41.02827181 -16 52 C-20.2632322 53.82918168 -23.32114139 54.41042619 -28 54 C-31.4375 52.5 -31.4375 52.5 -34 51 C-33.87625 49.783125 -33.7525 48.56625 -33.625 47.3125 C-33.65021668 43.71912258 -33.78745024 43.22933001 -36.375 40.4375 C-37.56680543 39.60094426 -38.77827114 38.7922148 -40 38 C-41.79248592 36.73032247 -43.58411535 35.45943512 -45.375 34.1875 C-46.91482879 33.1223382 -48.45587109 32.05891844 -50 31 C-48.29231921 27.44961249 -46.25801816 24.20601621 -44.12109375 20.90234375 C-41.90172849 17.1363825 -41.7344172 13.59659108 -41.4375 9.3125 C-41.35371094 8.13300781 -41.26992187 6.95351563 -41.18359375 5.73828125 C-41.12300781 4.83464844 -41.06242187 3.93101562 -41 3 C-39.80375 3.33 -38.6075 3.66 -37.375 4 C-22.8649974 7.12871931 -13.14927897 0 0 0 Z " fill="#825151" transform="translate(128,354)"/>
<path d="M0 0 C0.01401855 1.41309448 0.01401855 1.41309448 0.02832031 2.85473633 C0.07274003 6.40199883 0.13453036 9.94812599 0.20751953 13.49487305 C0.23547686 15.02015422 0.25681487 16.54557347 0.27099609 18.07104492 C0.42119841 33.32659379 3.65308831 45.35846527 13.9140625 57.2109375 C18.12595783 61.32215007 21.42170129 62.79847826 27.3125 63.02734375 C27.869375 63.01832031 28.42625 63.00929688 29 63 C29 63.33 29 63.66 29 64 C16.24628894 64.74696355 6.11092898 61.27631409 -3.96875 53.4765625 C-12.24693712 46.03345566 -16.97099671 34.17412951 -17.88720703 23.22216797 C-18.36034046 12.85214829 -18.36034046 12.85214829 -15.64941406 9.16113281 C-11.89303888 5.65446509 -7.57934122 3.27319816 -3 1 C-1 0 -1 0 0 0 Z " fill="#AC6C4C" transform="translate(80,281)"/>
<path d="M0 0 C0.01458252 0.74983154 0.02916504 1.49966309 0.04418945 2.2722168 C0.11970151 5.74443723 0.21601336 9.2158015 0.3125 12.6875 C0.33505859 13.86634766 0.35761719 15.04519531 0.38085938 16.25976562 C0.87212763 32.56093967 4.44032261 46.70403434 16.54296875 58.25 C20.4153066 61.00804031 24.32092314 61.69717874 29 62 C29 62.33 29 62.66 29 63 C16.70570932 63.87124895 7.11631998 60.72452498 -2.59375 53.12109375 C-11.76658945 45.03529534 -15.97643487 34.38746257 -16.89770508 22.35205078 C-17.30839839 11.65442111 -17.30839839 11.65442111 -13.63671875 7.01171875 C-10.83442563 4.9814481 -8.13774852 3.44400004 -5 2 C-2 0 -2 0 0 0 Z " fill="#F6BA7E" transform="translate(384,282)"/>
<path d="M0 0 C2.45252359 3.15324462 4.24305865 6.43193848 6 10 C4.89591797 10.79664063 4.89591797 10.79664063 3.76953125 11.609375 C2.79371094 12.31578125 1.81789063 13.0221875 0.8125 13.75 C-0.63189453 14.79414063 -0.63189453 14.79414063 -2.10546875 15.859375 C-3.06066406 16.56578125 -4.01585937 17.2721875 -5 18 C-5.9384375 18.66 -6.876875 19.32 -7.84375 20 C-10.15928523 21.77096149 -10.15928523 21.77096149 -10.48828125 24.140625 C-10.43027344 24.83671875 -10.37226563 25.5328125 -10.3125 26.25 C-10.209375 27.4875 -10.10625 28.725 -10 30 C-15.52639242 32.70680445 -19.93009621 34.04165728 -26.13671875 32.453125 C-28 31 -28 31 -28.8203125 27.62109375 C-28.95254516 26.22913582 -29.05249147 24.83384339 -29.125 23.4375 C-29.1657666 22.71530273 -29.2065332 21.99310547 -29.24853516 21.24902344 C-29.37119578 15.73053452 -28.30687642 12.20161982 -24.8359375 7.796875 C-20.60179509 3.65282073 -17.35209178 1.46593594 -11.5 0.1875 C-10.3965625 -0.06644531 -9.293125 -0.32039063 -8.15625 -0.58203125 C-5.02268132 -0.99699641 -2.98481202 -1.00364958 0 0 Z " fill="#F8BB7F" transform="translate(428,375)"/>
<path d="M0 0 C4.19633404 0.77075523 5.44861422 2.21584557 8.0625 5.5625 C8.76988616 8.45726066 8.74104874 11.25400534 8.69140625 14.22265625 C8.69381821 15.04954453 8.69623016 15.8764328 8.69871521 16.7283783 C8.69773855 18.4707419 8.68438811 20.21313723 8.65942383 21.95532227 C8.62505963 24.62037526 8.63878539 27.28212041 8.65820312 29.94726562 C8.65130569 31.64324326 8.64163423 33.33921235 8.62890625 35.03515625 C8.63386612 35.83002945 8.63882599 36.62490265 8.64393616 37.44386292 C8.56699061 41.06049913 8.37901724 43.14749633 6.15429688 46.06445312 C2.62439021 48.59240682 0.32392305 48.03599145 -3.9375 47.5625 C-6.06281032 46.19133205 -6.67331524 45.3111186 -7.50268555 42.9609375 C-8.13804185 39.4563107 -8.02514532 35.98388246 -7.95703125 32.4375 C-7.94290695 31.65358887 -7.92878265 30.86967773 -7.91423035 30.06201172 C-7.8811846 28.40781005 -7.84484066 26.7536714 -7.80541992 25.09960938 C-7.75019831 22.57157854 -7.72164463 20.04408122 -7.69335938 17.515625 C-7.65790416 15.90621271 -7.62084839 14.29683472 -7.58203125 12.6875 C-7.57766556 11.9332373 -7.57329987 11.17897461 -7.56880188 10.40185547 C-7.45581353 6.91793641 -7.19931695 4.91117614 -5.08081055 2.08984375 C-2.9375 0.5625 -2.9375 0.5625 0 0 Z " fill="#010101" transform="translate(463.9375,432.4375)"/>
<path d="M0 0 C3.87279086 0.71132893 5.34854688 1.70504211 8.0625 4.5625 C8.61578996 7.51369822 8.85402895 9.91215204 8.875 12.87109375 C8.89723633 13.67482925 8.91947266 14.47856476 8.94238281 15.30665588 C8.98388017 17.00342628 9.01339736 18.70052641 9.03173828 20.39770508 C9.06236721 22.98876656 9.13559124 25.5760338 9.21484375 28.16601562 C9.24993369 29.81765637 9.28256736 31.46935149 9.3125 33.12109375 C9.33417236 33.89206894 9.35584473 34.66304413 9.37817383 35.4573822 C9.4040295 40.03513573 8.84857986 42.89741546 6.0625 46.5625 C4.2121801 48.4128199 1.63777918 47.85390132 -0.83203125 47.98828125 C-3.99930497 47.34777506 -4.98774927 46.13229599 -6.9375 43.5625 C-7.33535614 40.59302937 -7.4989755 38.00238659 -7.46875 35.03515625 C-7.4725769 34.2092247 -7.47640381 33.38329315 -7.48034668 32.53233337 C-7.48306453 30.78822611 -7.47571213 29.04407799 -7.45898438 27.30004883 C-7.43759841 24.63725336 -7.45877438 21.97716408 -7.484375 19.31445312 C-7.48173117 17.61718157 -7.47660503 15.91991169 -7.46875 14.22265625 C-7.47684692 13.42980728 -7.48494385 12.63695831 -7.49328613 11.82008362 C-7.42741309 7.91481726 -7.18393875 5.96302803 -5.08789062 2.55639648 C-2.9375 0.5625 -2.9375 0.5625 0 0 Z " fill="#010001" transform="translate(46.9375,432.4375)"/>
<path d="M0 0 C0 7.92 0 15.84 0 24 C-2.31 24.66 -4.62 25.32 -7 26 C-9.20940472 27.15881061 -9.20940472 27.15881061 -11.078125 28.56640625 C-11.76390625 29.05173828 -12.4496875 29.53707031 -13.15625 30.03710938 C-14.19265625 30.79217773 -14.19265625 30.79217773 -15.25 31.5625 C-16.64880046 32.56693062 -18.04975708 33.56836713 -19.453125 34.56640625 C-20.06317383 35.00927979 -20.67322266 35.45215332 -21.30175781 35.90844727 C-23 37 -23 37 -26 38 C-26.43894615 29.42835705 -26.61004664 22.42490378 -22 15 C-21.57589844 14.30261719 -21.15179688 13.60523438 -20.71484375 12.88671875 C-17.26763895 7.78792837 -6.74794278 -3.37397139 0 0 Z " fill="#4C3B4B" transform="translate(81,241)"/>
<path d="M0 0 C0 7.59 0 15.18 0 23 C0.66 23.33 1.32 23.66 2 24 C1.03835938 24.20367187 0.07671875 24.40734375 -0.9140625 24.6171875 C-6.02363923 26.07669884 -10.06184997 29.11208645 -14.375 32.125 C-15.98577735 33.23351921 -17.59769285 34.34038706 -19.2109375 35.4453125 C-20.26740479 36.18031982 -20.26740479 36.18031982 -21.34521484 36.93017578 C-23 38 -23 38 -24 38 C-24.85526247 26.40644201 -23.6901717 18.32161953 -16.32421875 8.84375 C-12.03832635 4.19331043 -6.51479457 0 0 0 Z " fill="#C27D5B" transform="translate(384,241)"/>
<path d="M0 0 C-0.32613281 0.46148437 -0.65226562 0.92296875 -0.98828125 1.3984375 C-7.24393428 10.73578391 -8.49593666 19.91060649 -9 31 C-13.2632322 32.82918168 -16.32114139 33.41042619 -21 33 C-24.4375 31.5 -24.4375 31.5 -27 30 C-26.93489583 27.98177083 -26.86979167 25.96354167 -26.8046875 23.9453125 C-26.81668311 21.76136355 -26.81668311 21.76136355 -29 20 C-28.74617487 15.94786305 -26.10386833 13.08248633 -23.75 9.9375 C-22.98171875 8.89464844 -22.2134375 7.85179687 -21.421875 6.77734375 C-17.57895072 2.37037736 -14.08247577 0.72483057 -8.375 -0.25 C-7.43398437 -0.42015625 -6.49296875 -0.5903125 -5.5234375 -0.765625 C-3 -1 -3 -1 0 0 Z " fill="#AD6D4D" transform="translate(121,375)"/>
</svg>
